# xmcd CD database file
#
# Track frame offsets:
#	150
#	16642
#	29392
#	41420
#	55795
#	71170
#	83897
#	95540
#	106262
#	119412
#	133147
#	147662
#	161855
#	174685
#	188900
#	202787
#	214662
#
# Disc length: 3001 seconds
#
# Revision: 1
# Processed by: cddbd v1.5.1PL0 Copyright (c) Steve Scherf et al.
# Submitted via: CDex 1.51
#
DISCID=f20bb711
DTITLE=Don Williams - Pure Gold Of Don Williams CD2
DYEAR=1996
DGENRE=Country
TTITLE0=That's The Thing About Love
TTITLE1=It's Gotta Be Magic
TTITLE2=You're Sweet Love
TTITLE3=Listen To The Radio
TTITLE4=All I'm Missing Is You
TTITLE5=You're My Best Friend
TTITLE6=Time On My Hands
TTITLE7=Turn Down The Lights
TTITLE8=Mistakes
TTITLE9=Miracles
TTITLE10=If Hollywood Don't Need You
TTITLE11=Come Early Morning
TTITLE12=Atta Way To Go
TTITLE13=Down The Road I Go
TTITLE14=We Should Be Together
TTITLE15=The Ties That Bind
TTITLE16=Especially You
EXTD=YEAR: 1996
EXTT0=
EXTT1=
EXTT2=
EXTT3=
EXTT4=
EXTT5=
EXTT6=
EXTT7=
EXTT8=
EXTT9=
EXTT10=
EXTT11=
EXTT12=
EXTT13=
EXTT14=
EXTT15=
EXTT16=
PLAYORDER=
